HIERARCHY
ROOT Hips
{
	OFFSET 	 0.0	 82.7767562866211	 -3.42842698097229
	CHANNELS 6 Xposition Yposition Zposition Xrotation Yrotation Zrotation 
	JOINT LHipJoint
	{
		OFFSET 	 0.0	 0.0	 0.0
		CHANNELS 3 Xrotation Yrotation Zrotation 
		JOINT LeftUpLeg
		{
			OFFSET 	 1.3833840739607695e-08	 9.52159583568573	 6.661737828039804e-08
			CHANNELS 3 Xrotation Yrotation Zrotation 
			JOINT LeftLeg
			{
				OFFSET 	 -5.707910588625964e-08	 37.121901512145996	 1.8232933385320393e-07
				CHANNELS 3 Xrotation Yrotation Zrotation 
				JOINT LeftFoot
				{
					OFFSET 	 -2.8894096004705716e-08	 37.903292179107666	 6.046882994326097e-09
					CHANNELS 3 Xrotation Yrotation Zrotation 
					JOINT LeftToeBase
					{
						OFFSET 	 2.6527413599097827e-08	 13.004454374313354	 -1.205770683299079e-07
						CHANNELS 3 Xrotation Yrotation Zrotation 
						End Site
						{
							OFFSET 	 0.0	 0.0	 0.0
						}
					}
				}
			}
		}
	}
	JOINT LowerBack
	{
		OFFSET 	 0.0	 8.534448742866516	 -1.7118563278017973e-06
		CHANNELS 3 Xrotation Yrotation Zrotation 
		JOINT Spine
		{
			OFFSET 	 -6.293440239720671e-16	 15.672223567962646	 -5.30786294916652e-07
			CHANNELS 3 Xrotation Yrotation Zrotation 
			JOINT Spine1
			{
				OFFSET 	 -8.787226335679009e-16	 15.124907493591309	 1.9850716626024223e-08
				CHANNELS 3 Xrotation Yrotation Zrotation 
				JOINT LeftShoulder
				{
					OFFSET 	 2.2699464857578278	 7.339215278625488	 1.5681582689285278
					CHANNELS 3 Xrotation Yrotation Zrotation 
					JOINT LeftArm
					{
						OFFSET 	 -2.069970861384718e-09	 13.603790998458862	 1.58716789711022e-10
						CHANNELS 3 Xrotation Yrotation Zrotation 
						JOINT LeftForeArm
						{
							OFFSET 	 1.2936460791479476e-08	 23.163669109344482	 -2.6309954215264497e-08
							CHANNELS 3 Xrotation Yrotation Zrotation 
							JOINT LeftHand
							{
								OFFSET 	 4.768468215843313e-06	 21.078219413757324	 8.336330736824493e-08
								CHANNELS 3 Xrotation Yrotation Zrotation 
								JOINT LThumb
								{
									OFFSET 	 0.26190444827079773	 3.5369667410850525	 1.84941366314888
									CHANNELS 3 Xrotation Yrotation Zrotation 
									End Site
									{
										OFFSET 	 0.0	 0.0	 0.0
									}
								}
								JOINT LeftFingerBase
								{
									OFFSET 	 -4.723999609268503e-06	 2.8848156332969666	 4.762068073205228e-07
									CHANNELS 3 Xrotation Yrotation Zrotation 
									JOINT LeftHandFinger1
									{
										OFFSET 	 -2.75353812639878e-06	 6.790903806686401	 -3.88968601328088e-06
										CHANNELS 3 Xrotation Yrotation Zrotation 
										End Site
										{
											OFFSET 	 0.0	 0.0	 0.0
										}
									}
								}
							}
						}
					}
				}
				JOINT Neck
				{
					OFFSET 	 0.0	 14.310184717178345	 -1.513166836275559e-07
					CHANNELS 3 Xrotation Yrotation Zrotation 
					JOINT Neck1
					{
						OFFSET 	 -5.1608641744361507e-14	 5.616583824157715	 5.539393832521e-08
						CHANNELS 3 Xrotation Yrotation Zrotation 
						JOINT Head
						{
							OFFSET 	 -1.4334930811821245e-12	 5.616592764854431	 -1.838854331026596e-06
							CHANNELS 3 Xrotation Yrotation Zrotation 
							End Site
							{
								OFFSET 	 0.0	 0.0	 0.0
							}
						}
					}
				}
				JOINT RightShoulder
				{
					OFFSET 	 -2.2699464857578278	 7.339215278625488	 1.5681582689285278
					CHANNELS 3 Xrotation Yrotation Zrotation 
					JOINT RightArm
					{
						OFFSET 	 3.627677713780031e-08	 13.603789806365967	 1.1437942953884672e-09
						CHANNELS 3 Xrotation Yrotation Zrotation 
						JOINT RightForeArm
						{
							OFFSET 	 -2.7195401486324045e-08	 23.16366672515869	 -4.628752048319029e-08
							CHANNELS 3 Xrotation Yrotation Zrotation 
							JOINT RightHand
							{
								OFFSET 	 -1.327116194715927e-10	 21.07820987701416	 -1.3437972956609201e-08
								CHANNELS 3 Xrotation Yrotation Zrotation 
								JOINT RThumb
								{
									OFFSET 	 -0.26191262528300285	 3.5369661450386047	 1.849413514137268
									CHANNELS 3 Xrotation Yrotation Zrotation 
									End Site
									{
										OFFSET 	 0.0	 0.0	 0.0
									}
								}
								JOINT RightFingerBase
								{
									OFFSET 	 4.731079172870523e-06	 2.8848156332969666	 4.4467967086347926e-07
									CHANNELS 3 Xrotation Yrotation Zrotation 
									JOINT RightHandFinger1
									{
										OFFSET 	 -2.6848201173379493e-06	 6.790900230407715	 3.930656191641901e-06
										CHANNELS 3 Xrotation Yrotation Zrotation 
										End Site
										{
											OFFSET 	 0.0	 0.0	 0.0
										}
									}
								}
							}
						}
					}
				}
			}
		}
	}
	JOINT RHipJoint
	{
		OFFSET 	 0.0	 0.0	 0.0
		CHANNELS 3 Xrotation Yrotation Zrotation 
		JOINT RightUpLeg
		{
			OFFSET 	 -1.3833840739607695e-08	 9.52159583568573	 6.661737828039804e-08
			CHANNELS 3 Xrotation Yrotation Zrotation 
			JOINT RightLeg
			{
				OFFSET 	 -6.34770724872169e-08	 37.121896743774414	 2.5993788455025424e-07
				CHANNELS 3 Xrotation Yrotation Zrotation 
				JOINT RightFoot
				{
					OFFSET 	 8.486544800234697e-09	 37.90329694747925	 -9.579663284853268e-08
					CHANNELS 3 Xrotation Yrotation Zrotation 
					JOINT RightToeBase
					{
						OFFSET 	 -6.957762366255338e-08	 13.004448413848877	 3.9166149434777253e-07
						CHANNELS 3 Xrotation Yrotation Zrotation 
						End Site
						{
							OFFSET 	 0.0	 0.0	 0.0
						}
					}
				}
			}
		}
	}
}

MOTION
Frames: 1
Frame Time: 0.03333333333333333
0.0 0.0 0.0 -32.27821509955131 -0.0 -0.0 103.6654985504939 -5.371501992054073 -95.67629348130087 -163.07202685185752 75.4812052619931 -115.06387844004911 7.412837889086095 -0.6280809269458 1.2700263869782151 -71.91479551052174 3.782538074189336 -3.9907707566457336 -10.713498986625499 -0.29240576983295 -5.377361800435618 44.73105986928389 -1.2314678747238603e-09 -1.7024022899486208e-08 -11.924406944865304 -2.312625006985577e-09 3.455116446109691e-08 -5.502807242876798 1.6915838854038996e-09 -1.7558764259232047e-08 3.6165050097203166 -0.20083336510609334 -83.50405683770225 -0.9972586380965407 1.5072289843522337 -7.084814470980371 -0.5977967683724057 0.6474372798120615 0.7425440025521939 11.895972353808386 -6.388887317337185 -5.553647179504365 -153.3799885734933 10.576451540141349 -128.86234784536776 -1.1818968360983708 62.45487062337334 14.7109920491596 -6.437667231188217 -4.102374448447604 -25.071374075972823 26.755459580027633 5.338051885040417e-05 -7.933376847963722e-14 -1.395235020646198e-05 -9.804588378174592e-05 -1.2497638333798033e-11 -24.785457571891207 4.055096874577285e-05 1.8724688990796483e-05 3.6165050097203166 0.20083336510609334 83.50405683770225 -0.9972585375704511 -1.5072289727033144 7.084838335189063 -0.5978009502044934 -0.6474413307452646 -0.7425805998183256 11.895937837151305 6.388849727936702 5.553659978823617 -153.37972521347135 -10.578499503264693 128.85454077895406 -1.181683179040518 -62.45489950191313 -14.710836136827515 -6.437787447350281 4.102433203878838 25.07137816219318 103.6654985504939 5.371501992054073 95.67629348130087 -163.07202372707337 -75.48120845540153 115.06388499885017 7.412840473811435 0.6280807516378462 -1.2700319507716342 -71.91482890982178 -3.782542213898917 3.9907902010979814 -10.713132487873903 0.29241052268169754 5.377299312458633
